<svg viewBox="0 0 240 40" fill="none" xmlns="http://www.w3.org/2000/svg">
<path d="M18.5926 16.0662L9.55402 37.1841L18.5926 16.0662Z" fill="#8087E8"/>
<path d="M41.7442 23.5941V23.614L30.5847 28.309L41.7442 23.614V23.5941Z" fill="#18171C"/>
<path d="M30.5847 28.309L41.7442 23.614L28.999 19.4538L30.5847 28.309Z" fill="#30426B"/>
<path d="M41.7441 23.5941L25.4905 0L28.9989 19.4538L41.7441 23.5941Z" fill="#6699A1"/>
<path d="M30.5847 28.309L9.55402 37.1841L30.5847 28.309Z" fill="#78758C"/>
<path d="M30.5847 28.309L28.999 19.4538L18.5926 16.0662L9.55402 37.1841L30.5847 28.309Z" fill="#78758C"/>
<path d="M28.999 19.4538L41.7442 23.5941L28.999 19.4538Z" fill="#78758C"/>
<path d="M0 10.024L9.55399 37.1841L18.5926 16.0662L0 10.024Z" fill="#A3EDBA"/>
<path d="M30.5847 28.309L32.6263 39.6207L41.7442 23.614L30.5847 28.309Z" fill="#6699A1"/>
<path d="M18.5926 16.0662L28.9989 19.4538L25.4905 0L18.5926 16.0662Z" fill="#8087E8"/>
<path d="M75.3761 13.32C74.7299 13.32 74.2251 13.82 74.2251 14.46V19.68H63.584V14.46C63.584 13.82 63.0792 13.32 62.4331 13.32C61.787 13.32 61.2822 13.82 61.2822 14.46V27.92C61.2822 28.56 61.787 29.06 62.4331 29.06C63.0792 29.06 63.584 28.56 63.584 27.92V21.88H74.2251V27.92C74.2251 28.56 74.7299 29.06 75.3761 29.06C76.0222 29.06 76.527 28.56 76.527 27.92V14.46C76.527 13.82 76.0222 13.32 75.3761 13.32Z" fill="#18171C"/>
<path d="M84.6239 13.32C83.9778 13.32 83.473 13.82 83.473 14.46V27.92C83.473 28.56 83.9778 29.06 84.6239 29.06C85.27 29.06 85.7748 28.56 85.7748 27.92V14.46C85.7748 13.82 85.27 13.32 84.6239 13.32Z" fill="currentColor"/>
<path d="M103.907 21.2C103.261 21.2 102.756 21.66 102.756 22.3V25.56C101.747 26.44 100.434 26.94 98.9601 26.94C95.7698 26.94 93.1853 24.38 93.1853 21.22C93.1853 18.06 95.7698 15.5 98.9601 15.5C100.575 15.5 101.969 16.14 103.039 17.2C103.503 17.66 104.23 17.62 104.695 17.16C105.159 16.7 105.159 16.02 104.695 15.56C103.221 14.1 101.222 13.22 98.9601 13.22C94.4776 13.22 90.8632 16.8 90.8632 21.24C90.8632 25.68 94.4776 29.26 98.9601 29.26C101.222 29.26 103.221 28.4 104.695 26.92C104.917 26.7 105.058 26.28 105.058 26V22.38C105.058 21.7 104.553 21.2 103.907 21.2Z" fill="#18171C"/>
<path d="M125.189 13.32C124.543 13.32 124.038 13.82 124.038 14.46V19.68H113.397V14.46C113.397 13.82 112.892 13.32 112.246 13.32C111.6 13.32 111.095 13.82 111.095 14.46V27.92C111.095 28.56 111.6 29.06 112.246 29.06C112.892 29.06 113.397 28.56 113.397 27.92V21.88H124.038V27.92C124.038 28.56 124.543 29.06 125.189 29.06C125.835 29.06 126.34 28.56 126.34 27.92V14.46C126.34 13.82 125.835 13.32 125.189 13.32Z" fill="#18171C"/>
<path d="M139.525 15.48C141.141 15.48 142.534 16.12 143.604 17.18C144.069 17.64 144.816 17.6 145.28 17.14C145.745 16.68 145.745 16 145.28 15.54C143.806 14.08 141.807 13.2 139.546 13.2C135.063 13.2 131.449 16.78 131.449 21.22C131.449 25.66 135.063 29.24 139.546 29.24C141.807 29.24 143.806 28.36 145.28 26.9C145.745 26.44 145.745 25.76 145.28 25.3C144.816 24.84 144.129 24.84 143.665 25.3C142.595 26.36 141.161 26.94 139.546 26.94C136.355 26.94 133.771 24.38 133.771 21.22C133.73 18.04 136.335 15.48 139.525 15.48Z" fill="#18171C"/>
<path d="M164.806 13.32C164.159 13.32 163.655 13.82 163.655 14.46V19.68H153.014V14.46C153.014 13.82 152.509 13.32 151.863 13.32C151.217 13.32 150.712 13.82 150.712 14.46V27.92C150.712 28.56 151.217 29.06 151.863 29.06C152.509 29.06 153.014 28.56 153.014 27.92V21.88H163.655V27.92C163.655 28.56 164.159 29.06 164.806 29.06C165.452 29.06 165.957 28.56 165.957 27.92V14.46C165.977 13.82 165.452 13.32 164.806 13.32Z" fill="#18171C"/>
<path d="M180.656 14.32C180.232 13.44 179.404 13.32 178.94 13.32C178.476 13.32 177.648 13.46 177.224 14.32L170.661 27.1C170.52 27.38 170.379 27.74 170.379 28.06C170.379 28.7 170.803 29.06 171.449 29.06C171.913 29.06 172.378 28.92 172.701 28.28L174.7 24.3H183.16L185.199 28.28C185.522 28.92 185.987 29.06 186.451 29.06C187.097 29.06 187.521 28.7 187.521 28.06C187.521 27.74 187.38 27.38 187.239 27.1L180.656 14.32ZM175.79 22.12L178.94 15.94L182.029 22.12H175.79Z" fill="#18171C"/>
<path d="M201.252 22.84C203.554 22.42 205.331 20.6 205.331 18.16C205.331 15.42 203.069 13.4 200.283 13.4H193.054C192.408 13.4 191.903 13.9 191.903 14.54V27.92C191.903 28.56 192.408 29.06 193.054 29.06C193.7 29.06 194.205 28.6 194.205 27.96V22.92H198.284L203.735 28.6C204.2 29.1 205.088 29.24 205.533 28.78C205.997 28.36 205.856 27.64 205.432 27.22L201.252 22.84ZM194.225 20.74V15.6H200.283C201.898 15.6 203.009 16.7 203.009 18.16C203.009 19.62 201.898 20.72 200.283 20.72H194.225V20.74Z" fill="#18171C"/>
<path d="M223.927 13.42H210.055C209.409 13.42 208.905 13.88 208.905 14.52C208.905 15.16 209.409 15.62 210.055 15.62H215.83V27.94C215.83 28.58 216.335 29.08 216.981 29.08C217.627 29.08 218.132 28.58 218.132 27.94V15.62H223.907C224.553 15.62 225.058 15.16 225.058 14.52C225.078 13.86 224.573 13.42 223.927 13.42Z" fill="#18171C"/>
<path d="M238.041 14.32C238.041 13.68 237.537 13.18 236.89 13.18C234.205 13.18 230.651 13.86 230.651 19.6V22.8C230.651 26.46 228.895 26.92 226.714 26.92C226.068 26.92 225.563 27.42 225.563 28.06C225.563 28.7 226.068 29.2 226.714 29.2C229.399 29.2 232.953 28.52 232.953 22.78V19.58C232.953 15.92 234.71 15.46 236.89 15.46C237.516 15.48 238.041 14.96 238.041 14.32Z" fill="#18171C"/>
<path d="M238.163 25.6C237.153 25.6 236.325 26.42 236.325 27.42C236.325 28.42 237.153 29.24 238.163 29.24C239.172 29.24 240 28.42 240 27.42C240 26.42 239.172 25.6 238.163 25.6ZM238.163 28.88C237.355 28.88 236.689 28.22 236.689 27.42C236.689 26.62 237.355 25.96 238.163 25.96C238.97 25.96 239.637 26.62 239.637 27.42C239.616 28.22 238.97 28.88 238.163 28.88Z" fill="#18171C"/>
<path d="M238.647 27.54C238.587 27.48 238.526 27.46 238.465 27.44C238.587 27.4 238.688 27.34 238.748 27.26C238.809 27.18 238.849 27.08 238.849 26.94C238.849 26.76 238.788 26.62 238.667 26.54C238.546 26.46 238.364 26.42 238.102 26.42H237.335V28.34H237.839V27.62H237.981C238.062 27.62 238.122 27.64 238.183 27.68C238.223 27.72 238.284 27.78 238.324 27.88L238.566 28.36H239.091L238.829 27.82C238.768 27.68 238.708 27.6 238.647 27.54ZM238.284 27.22C238.243 27.26 238.163 27.28 238.062 27.28H237.86V26.78H238.062C238.163 26.78 238.243 26.8 238.284 26.84C238.324 26.88 238.344 26.94 238.344 27.02C238.344 27.12 238.324 27.18 238.284 27.22Z" fill="#18171C"/>
</svg>
